<svg xmlns="http://www.w3.org/2000/svg" width="24" height="24" viewBox="0 0 24 24" fill="none" stroke="currentColor" stroke-width="2" stroke-linecap="round" stroke-linejoin="round">
  <path d="M7 11c.77.7 1.76 1 2.76 1 2.23 0 4.24-1.46 4.24-4a5 5 0 0 0-10 0c0 .7.14 1.37.38 2"/>
  <path d="M7 11 2.5 15.5"/>
  <path d="M17 8c-.77.7-1.76 1-2.76 1-2.23 0-4.24-1.46-4.24-4a5 5 0 0 1 10 0c0 .7-.14 1.37-.38 2"/>
  <path d="M17 8l4.5 4.5"/>
  <path d="M7 13c.77-.7 1.76-1 2.76-1h1"/>
  <path d="M22 20a2 2 0 1 1-4 0c0-1.6 1.7-2.4 2-4 .3 1.6 2 2.4 2 4Z"/>
  <path d="M2 15c6.7 2.9 13.3 2.9 20 0"/>
</svg>
