<svg xmlns="http://www.w3.org/2000/svg" width="24" height="24" viewBox="0 0 24 24" fill="none" stroke="currentColor" stroke-width="2" stroke-linecap="round" stroke-linejoin="round">
  <path d="M6 12c.7-1.2 1.5-2 3-2"/>
  <path d="M6 8c1.3-1.3 2.2-2 3-2"/>
  <path d="M13 12c-.7-1.2-1.5-2-3-2"/>
  <path d="M13 8c-1.3-1.3-2.2-2-3-2"/>
  <path d="M19 12c-1.2-1.2-2-2-3-2"/>
  <path d="M16 6c-1.2-1.2-2-2-2-3"/>
  <path d="M9 19c-2 0-4-1-5-2"/>
  <path d="M15 19c2 0 4-1 5-2"/>
  <path d="M12 19c0-3 0-4 1-5"/>
</svg>
